<svg xmlns="http://www.w3.org/2000/svg" width="1000" height="500" fill="none" viewBox="0 0 1000 500"><rect width="1000" height="500" fill="#fff"/><path fill="#000" d="M252.719 294V182.281H274.203L312.094 267.047L349.203 182.281H369.906V294H350.766V216.188L320.453 294H302.797L271.859 216.188V294H252.719ZM387.484 268.453C387.484 252.151 399.359 244 423.109 244C428.682 244 434.255 244.521 439.828 245.562V239.391C439.828 232.047 434.542 228.375 423.969 228.375C415.01 228.375 405.062 229.677 394.125 232.281V215.875C405.062 213.271 415.01 211.969 423.969 211.969C448.344 211.969 460.531 220.979 460.531 239V294H448.5L441.156 286.656C434.021 291.552 426.156 294 417.562 294C397.51 294 387.484 285.484 387.484 268.453ZM439.828 259.625C434.62 258.583 429.047 258.062 423.109 258.062C413.161 258.062 408.188 261.448 408.188 268.219C408.188 275.51 412.354 279.156 420.688 279.156C427.562 279.156 433.943 277.021 439.828 272.75V259.625ZM532.641 230.562C529.255 229.312 524.438 228.688 518.188 228.688C503.865 228.688 496.703 236.578 496.703 252.359C496.703 267.62 502.875 275.25 515.219 275.25C521.156 275.25 526.964 273.844 532.641 271.031V230.562ZM553.344 287.75C553.344 311.708 538.943 323.688 510.141 323.688C500.036 323.688 491.078 322.385 483.266 319.781V303.375C491.234 305.979 500.245 307.281 510.297 307.281C525.193 307.281 532.641 301.031 532.641 288.531C526.495 291.135 519.88 292.438 512.797 292.438C488.422 292.438 476.234 279.13 476.234 252.516C476.234 225.484 490.427 211.969 518.812 211.969C528.344 211.969 539.854 213.089 553.344 215.328V287.75ZM674.516 268.453C674.516 252.151 686.391 244 710.141 244C715.714 244 721.286 244.521 726.859 245.562V239.391C726.859 232.047 721.573 228.375 711 228.375C702.042 228.375 692.094 229.677 681.156 232.281V215.875C692.094 213.271 702.042 211.969 711 211.969C735.375 211.969 747.562 220.979 747.562 239V294H735.531L728.188 286.656C721.052 291.552 713.188 294 704.594 294C684.542 294 674.516 285.484 674.516 268.453ZM726.859 259.625C721.651 258.583 716.078 258.062 710.141 258.062C700.193 258.062 695.219 261.448 695.219 268.219C695.219 275.51 699.385 279.156 707.719 279.156C714.594 279.156 720.974 277.021 726.859 272.75V259.625Z"/><path fill="#000" d="M594.92 277.92L571 277.92L571 253.04C571 244.347 572.707 236.8 576.12 230.4C579.533 224.053 584.413 219.12 590.76 215.6C597.107 212.133 604.68 210.4 613.48 210.4C622.333 210.4 629.96 212.133 636.36 215.6C642.76 219.12 647.667 224.053 651.08 230.4C654.44 236.8 656.12 244.347 656.12 253.04L656.12 277.92L632.28 277.92L632.28 254.32C632.28 249.52 631.533 245.467 630.04 242.16C628.493 238.853 626.307 236.347 623.48 234.64C620.653 232.987 617.32 232.16 613.48 232.16C609.693 232.16 606.413 232.987 603.64 234.64C600.867 236.347 598.733 238.853 597.24 242.16C595.693 245.467 594.92 249.52 594.92 254.32L594.92 277.92Z"/><rect width="24" height="8" x="571.003" y="283" fill="#000"/><rect width="24" height="8" x="632.003" y="283" fill="#000"/><path fill="#000" d="M598.8 340.768V342H586.744V340.768L589.164 340.46C589.633 340.401 589.912 340.284 590 340.108C590.088 339.903 590.132 339.301 590.132 338.304V327.656H578.56V338.304C578.56 339.301 578.604 339.903 578.692 340.108C578.78 340.284 579.059 340.401 579.528 340.46L581.948 340.768V342H569.892V340.768L572.312 340.46C572.781 340.401 573.06 340.284 573.148 340.108C573.236 339.903 573.28 339.301 573.28 338.304V315.776C573.28 314.779 573.236 314.192 573.148 314.016C573.06 313.811 572.781 313.679 572.312 313.62L569.892 313.312V312.08H581.948V313.312L579.528 313.62C579.059 313.679 578.78 313.811 578.692 314.016C578.604 314.192 578.56 314.779 578.56 315.776V326.116H590.132V315.776C590.132 314.779 590.088 314.192 590 314.016C589.912 313.811 589.633 313.679 589.164 313.62L586.744 313.312V312.08H598.8V313.312L596.38 313.62C595.911 313.679 595.632 313.811 595.544 314.016C595.456 314.192 595.412 314.779 595.412 315.776V338.304C595.412 339.301 595.456 339.903 595.544 340.108C595.632 340.284 595.911 340.401 596.38 340.46L598.8 340.768ZM628.991 313.312V312.08H641.047V313.312L638.627 313.62C638.158 313.679 637.879 313.811 637.791 314.016C637.703 314.192 637.659 314.779 637.659 315.776V338.304C637.659 339.301 637.703 339.903 637.791 340.108C637.879 340.284 638.158 340.401 638.627 340.46L641.047 340.768V342H628.991V340.768L631.411 340.46C631.881 340.401 632.159 340.284 632.247 340.108C632.335 339.903 632.379 339.301 632.379 338.304V315.776C632.379 314.779 632.335 314.192 632.247 314.016C632.159 313.811 631.881 313.679 631.411 313.62L628.991 313.312ZM671.247 313.312V312.08H684.535C687.615 312.08 689.991 312.769 691.663 314.148C693.335 315.527 694.171 317.375 694.171 319.692V320.704C694.171 322.464 693.687 323.96 692.719 325.192C691.751 326.424 690.357 327.304 688.539 327.832L694.039 338.304C694.391 338.949 694.655 339.419 694.831 339.712C695.007 340.005 695.168 340.196 695.315 340.284C695.491 340.343 695.725 340.401 696.019 340.46L697.999 340.768V342H689.771L683.127 328.36H679.915V338.304C679.915 339.301 679.959 339.903 680.047 340.108C680.135 340.284 680.413 340.401 680.883 340.46L683.303 340.768V342H671.247V340.768L673.667 340.46C674.136 340.401 674.415 340.284 674.503 340.108C674.591 339.903 674.635 339.301 674.635 338.304V315.776C674.635 314.779 674.591 314.192 674.503 314.016C674.415 313.811 674.136 313.679 673.667 313.62L671.247 313.312ZM684.535 313.62H679.915V326.82H684.535C685.825 326.82 686.808 326.424 687.483 325.632C688.187 324.811 688.539 323.315 688.539 321.144V319.252C688.539 317.081 688.187 315.6 687.483 314.808C686.808 314.016 685.825 313.62 684.535 313.62ZM746.855 334.432H748.087V342H726.307V340.768L728.727 340.46C729.196 340.401 729.475 340.284 729.563 340.108C729.651 339.903 729.695 339.301 729.695 338.304V315.776C729.695 314.779 729.651 314.192 729.563 314.016C729.475 313.811 729.196 313.679 728.727 313.62L726.307 313.312V312.08H747.647V319.648H746.415L745.007 314.764C744.919 314.412 744.816 314.163 744.699 314.016C744.611 313.84 744.42 313.737 744.127 313.708C743.834 313.649 743.335 313.62 742.631 313.62H734.975V326.116H739.991C740.695 326.116 741.194 326.101 741.487 326.072C741.78 326.013 741.971 325.911 742.059 325.764C742.176 325.588 742.279 325.324 742.367 324.972L743.335 321.408H744.567V332.364H743.335L742.367 328.8C742.279 328.448 742.176 328.199 742.059 328.052C741.971 327.876 741.78 327.773 741.487 327.744C741.194 327.685 740.695 327.656 739.991 327.656H734.975V340.46H743.071C743.775 340.46 744.274 340.445 744.567 340.416C744.86 340.357 745.051 340.255 745.139 340.108C745.256 339.932 745.359 339.668 745.447 339.316L746.855 334.432Z"/><circle cx="611.003" cy="183" r="18" fill="#000"/></svg>