<svg width="517" height="203" viewBox="0 0 517 203" fill="none" xmlns="http://www.w3.org/2000/svg">
<path d="M11.7188 145V33.2812H33.2031L71.0938 118.047L108.203 33.2812H128.906V145H109.766V67.1875L79.4531 145H61.7969L30.8594 67.1875V145H11.7188ZM146.484 119.453C146.484 103.151 158.359 95 182.109 95C187.682 95 193.255 95.5208 198.828 96.5625V90.3906C198.828 83.0469 193.542 79.375 182.969 79.375C174.01 79.375 164.062 80.6771 153.125 83.2812V66.875C164.062 64.2708 174.01 62.9688 182.969 62.9688C207.344 62.9688 219.531 71.9792 219.531 90V145H207.5L200.156 137.656C193.021 142.552 185.156 145 176.562 145C156.51 145 146.484 136.484 146.484 119.453ZM198.828 110.625C193.62 109.583 188.047 109.062 182.109 109.062C172.161 109.062 167.188 112.448 167.188 119.219C167.188 126.51 171.354 130.156 179.688 130.156C186.562 130.156 192.943 128.021 198.828 123.75V110.625ZM291.641 81.5625C288.255 80.3125 283.438 79.6875 277.188 79.6875C262.865 79.6875 255.703 87.5781 255.703 103.359C255.703 118.62 261.875 126.25 274.219 126.25C280.156 126.25 285.964 124.844 291.641 122.031V81.5625ZM312.344 138.75C312.344 162.708 297.943 174.688 269.141 174.688C259.036 174.688 250.078 173.385 242.266 170.781V154.375C250.234 156.979 259.245 158.281 269.297 158.281C284.193 158.281 291.641 152.031 291.641 139.531C285.495 142.135 278.88 143.438 271.797 143.438C247.422 143.438 235.234 130.13 235.234 103.516C235.234 76.4844 249.427 62.9688 277.812 62.9688C287.344 62.9688 298.854 64.0885 312.344 66.3281V138.75ZM433.516 119.453C433.516 103.151 445.391 95 469.141 95C474.714 95 480.286 95.5208 485.859 96.5625V90.3906C485.859 83.0469 480.573 79.375 470 79.375C461.042 79.375 451.094 80.6771 440.156 83.2812V66.875C451.094 64.2708 461.042 62.9688 470 62.9688C494.375 62.9688 506.562 71.9792 506.562 90V145H494.531L487.188 137.656C480.052 142.552 472.188 145 463.594 145C443.542 145 433.516 136.484 433.516 119.453ZM485.859 110.625C480.651 109.583 475.078 109.062 469.141 109.062C459.193 109.062 454.219 112.448 454.219 119.219C454.219 126.51 458.385 130.156 466.719 130.156C473.594 130.156 479.974 128.021 485.859 123.75V110.625Z" fill="#010221"/>
<path d="M353.92 128.92L330 128.92L330 104.04C330 95.3466 331.707 87.7999 335.12 81.3999C338.533 75.0532 343.413 70.1199 349.76 66.5999C356.107 63.1332 363.68 61.3999 372.48 61.3999C381.333 61.3999 388.96 63.1332 395.36 66.5999C401.76 70.1199 406.667 75.0532 410.08 81.3999C413.44 87.7999 415.12 95.3466 415.12 104.04L415.12 128.92L391.28 128.92L391.28 105.32C391.28 100.52 390.533 96.4666 389.04 93.1599C387.493 89.8532 385.307 87.3466 382.48 85.6399C379.653 83.9866 376.32 83.1599 372.48 83.1599C368.693 83.1599 365.413 83.9866 362.64 85.6399C359.867 87.3466 357.733 89.8532 356.24 93.1599C354.693 96.4666 353.92 100.52 353.92 105.32L353.92 128.92Z" fill="#A020F0"/>
<rect x="330.003" y="134" width="24" height="8" fill="#010221"/>
<rect x="391.003" y="134" width="24" height="8" fill="#010221"/>
<path d="M357.8 191.768V193H345.744V191.768L348.164 191.46C348.633 191.401 348.912 191.284 349 191.108C349.088 190.903 349.132 190.301 349.132 189.304V178.656H337.56V189.304C337.56 190.301 337.604 190.903 337.692 191.108C337.78 191.284 338.059 191.401 338.528 191.46L340.948 191.768V193H328.892V191.768L331.312 191.46C331.781 191.401 332.06 191.284 332.148 191.108C332.236 190.903 332.28 190.301 332.28 189.304V166.776C332.28 165.779 332.236 165.192 332.148 165.016C332.06 164.811 331.781 164.679 331.312 164.62L328.892 164.312V163.08H340.948V164.312L338.528 164.62C338.059 164.679 337.78 164.811 337.692 165.016C337.604 165.192 337.56 165.779 337.56 166.776V177.116H349.132V166.776C349.132 165.779 349.088 165.192 349 165.016C348.912 164.811 348.633 164.679 348.164 164.62L345.744 164.312V163.08H357.8V164.312L355.38 164.62C354.911 164.679 354.632 164.811 354.544 165.016C354.456 165.192 354.412 165.779 354.412 166.776V189.304C354.412 190.301 354.456 190.903 354.544 191.108C354.632 191.284 354.911 191.401 355.38 191.46L357.8 191.768ZM387.991 164.312V163.08H400.047V164.312L397.627 164.62C397.158 164.679 396.879 164.811 396.791 165.016C396.703 165.192 396.659 165.779 396.659 166.776V189.304C396.659 190.301 396.703 190.903 396.791 191.108C396.879 191.284 397.158 191.401 397.627 191.46L400.047 191.768V193H387.991V191.768L390.411 191.46C390.881 191.401 391.159 191.284 391.247 191.108C391.335 190.903 391.379 190.301 391.379 189.304V166.776C391.379 165.779 391.335 165.192 391.247 165.016C391.159 164.811 390.881 164.679 390.411 164.62L387.991 164.312ZM430.247 164.312V163.08H443.535C446.615 163.08 448.991 163.769 450.663 165.148C452.335 166.527 453.171 168.375 453.171 170.692V171.704C453.171 173.464 452.687 174.96 451.719 176.192C450.751 177.424 449.357 178.304 447.539 178.832L453.039 189.304C453.391 189.949 453.655 190.419 453.831 190.712C454.007 191.005 454.168 191.196 454.315 191.284C454.491 191.343 454.725 191.401 455.019 191.46L456.999 191.768V193H448.771L442.127 179.36H438.915V189.304C438.915 190.301 438.959 190.903 439.047 191.108C439.135 191.284 439.413 191.401 439.883 191.46L442.303 191.768V193H430.247V191.768L432.667 191.46C433.136 191.401 433.415 191.284 433.503 191.108C433.591 190.903 433.635 190.301 433.635 189.304V166.776C433.635 165.779 433.591 165.192 433.503 165.016C433.415 164.811 433.136 164.679 432.667 164.62L430.247 164.312ZM443.535 164.62H438.915V177.82H443.535C444.825 177.82 445.808 177.424 446.483 176.632C447.187 175.811 447.539 174.315 447.539 172.144V170.252C447.539 168.081 447.187 166.6 446.483 165.808C445.808 165.016 444.825 164.62 443.535 164.62ZM505.855 185.432H507.087V193H485.307V191.768L487.727 191.46C488.196 191.401 488.475 191.284 488.563 191.108C488.651 190.903 488.695 190.301 488.695 189.304V166.776C488.695 165.779 488.651 165.192 488.563 165.016C488.475 164.811 488.196 164.679 487.727 164.62L485.307 164.312V163.08H506.647V170.648H505.415L504.007 165.764C503.919 165.412 503.816 165.163 503.699 165.016C503.611 164.84 503.42 164.737 503.127 164.708C502.834 164.649 502.335 164.62 501.631 164.62H493.975V177.116H498.991C499.695 177.116 500.194 177.101 500.487 177.072C500.78 177.013 500.971 176.911 501.059 176.764C501.176 176.588 501.279 176.324 501.367 175.972L502.335 172.408H503.567V183.364H502.335L501.367 179.8C501.279 179.448 501.176 179.199 501.059 179.052C500.971 178.876 500.78 178.773 500.487 178.744C500.194 178.685 499.695 178.656 498.991 178.656H493.975V191.46H502.071C502.775 191.46 503.274 191.445 503.567 191.416C503.86 191.357 504.051 191.255 504.139 191.108C504.256 190.932 504.359 190.668 504.447 190.316L505.855 185.432Z" fill="#010221"/>
<circle cx="370.003" cy="34" r="18" fill="#010221"/>
</svg>
